<mxfile host="app.diagrams.net" modified="2023-06-03T22:45:19.052Z" agent="Mozilla/5.0 (Windows NT 10.0; Win64; x64) AppleWebKit/537.36 (KHTML, like Gecko) Chrome/114.0.0.0 Safari/537.36" etag="xTlCH23vYMTgLU9mYy1I" version="21.3.6" type="device">
  <diagram id="C5RBs43oDa-KdzZeNtuy" name="Page-1">
    <mxGraphModel dx="2261" dy="834" grid="1" gridSize="10" guides="1" tooltips="1" connect="1" arrows="1" fold="1" page="1" pageScale="1" pageWidth="827" pageHeight="1169" math="0" shadow="0">
      <root>
        <mxCell id="WIyWlLk6GJQsqaUBKTNV-0" />
        <mxCell id="WIyWlLk6GJQsqaUBKTNV-1" parent="WIyWlLk6GJQsqaUBKTNV-0" />
        <mxCell id="0XorIoKaiHv6GGdxO0SR-0" value="&lt;font style=&quot;font-size: 14px;&quot;&gt;MainWindow&lt;/font&gt;" style="swimlane;fontStyle=1;align=center;verticalAlign=top;childLayout=stackLayout;horizontal=1;startSize=26;horizontalStack=0;resizeParent=1;resizeParentMax=0;resizeLast=0;collapsible=1;marginBottom=0;whiteSpace=wrap;html=1;fillColor=#f5f5f5;fontColor=#333333;strokeColor=#666666;" vertex="1" parent="WIyWlLk6GJQsqaUBKTNV-1">
          <mxGeometry x="315" y="160" width="380" height="320" as="geometry" />
        </mxCell>
        <mxCell id="0XorIoKaiHv6GGdxO0SR-1" value="&lt;font style=&quot;font-size: 14px;&quot;&gt;+ui: Ui_MainWindow()&lt;br&gt;+generated_array: array&lt;br&gt;+sorted_array: array&lt;br&gt;file_name: string&lt;/font&gt;" style="text;strokeColor=none;fillColor=none;align=left;verticalAlign=top;spacingLeft=4;spacingRight=4;overflow=hidden;rotatable=0;points=[[0,0.5],[1,0.5]];portConstraint=eastwest;whiteSpace=wrap;html=1;" vertex="1" parent="0XorIoKaiHv6GGdxO0SR-0">
          <mxGeometry y="26" width="380" height="74" as="geometry" />
        </mxCell>
        <mxCell id="0XorIoKaiHv6GGdxO0SR-2" value="" style="line;strokeWidth=1;fillColor=none;align=left;verticalAlign=middle;spacingTop=-1;spacingLeft=3;spacingRight=3;rotatable=0;labelPosition=right;points=[];portConstraint=eastwest;strokeColor=inherit;" vertex="1" parent="0XorIoKaiHv6GGdxO0SR-0">
          <mxGeometry y="100" width="380" height="8" as="geometry" />
        </mxCell>
        <mxCell id="0XorIoKaiHv6GGdxO0SR-3" value="&lt;font style=&quot;font-size: 14px;&quot;&gt;+__init__()&lt;br&gt;+generate_array()&lt;br&gt;+update_colot(name, title, text)&lt;br&gt;+show_array(array)&lt;br&gt;+clear_file()&lt;br&gt;+save_array()&lt;br&gt;+draw_graph()&lt;br&gt;+draw_animation()&lt;br&gt;+bucket_sort(array)&lt;br&gt;+counting_sort(array)&lt;br&gt;+countingSort(array, place)&lt;br&gt;+radix_sort(array)&lt;/font&gt;" style="text;strokeColor=none;fillColor=none;align=left;verticalAlign=top;spacingLeft=4;spacingRight=4;overflow=hidden;rotatable=0;points=[[0,0.5],[1,0.5]];portConstraint=eastwest;whiteSpace=wrap;html=1;" vertex="1" parent="0XorIoKaiHv6GGdxO0SR-0">
          <mxGeometry y="108" width="380" height="212" as="geometry" />
        </mxCell>
        <mxCell id="0XorIoKaiHv6GGdxO0SR-4" value="&lt;font style=&quot;font-size: 14px;&quot;&gt;QMainWindow&lt;/font&gt;" style="swimlane;fontStyle=0;childLayout=stackLayout;horizontal=1;startSize=26;fillColor=none;horizontalStack=0;resizeParent=1;resizeParentMax=0;resizeLast=0;collapsible=1;marginBottom=0;whiteSpace=wrap;html=1;" vertex="1" parent="WIyWlLk6GJQsqaUBKTNV-1">
          <mxGeometry x="435" width="140" height="52" as="geometry" />
        </mxCell>
        <mxCell id="0XorIoKaiHv6GGdxO0SR-13" value="Extends" style="endArrow=block;endSize=16;endFill=0;html=1;rounded=0;exitX=0.5;exitY=0;exitDx=0;exitDy=0;entryX=0.5;entryY=1;entryDx=0;entryDy=0;" edge="1" parent="WIyWlLk6GJQsqaUBKTNV-1" source="0XorIoKaiHv6GGdxO0SR-0" target="0XorIoKaiHv6GGdxO0SR-4">
          <mxGeometry width="160" relative="1" as="geometry">
            <mxPoint x="380" y="-40" as="sourcePoint" />
            <mxPoint x="540" y="-40" as="targetPoint" />
          </mxGeometry>
        </mxCell>
        <mxCell id="0XorIoKaiHv6GGdxO0SR-14" value="&lt;font style=&quot;font-size: 14px;&quot;&gt;ArrayDialog&lt;/font&gt;" style="swimlane;fontStyle=1;align=center;verticalAlign=top;childLayout=stackLayout;horizontal=1;startSize=26;horizontalStack=0;resizeParent=1;resizeParentMax=0;resizeLast=0;collapsible=1;marginBottom=0;whiteSpace=wrap;html=1;" vertex="1" parent="WIyWlLk6GJQsqaUBKTNV-1">
          <mxGeometry x="-55" y="160" width="170" height="80" as="geometry" />
        </mxCell>
        <mxCell id="0XorIoKaiHv6GGdxO0SR-16" value="" style="line;strokeWidth=1;fillColor=none;align=left;verticalAlign=middle;spacingTop=-1;spacingLeft=3;spacingRight=3;rotatable=0;labelPosition=right;points=[];portConstraint=eastwest;strokeColor=inherit;" vertex="1" parent="0XorIoKaiHv6GGdxO0SR-14">
          <mxGeometry y="26" width="170" height="8" as="geometry" />
        </mxCell>
        <mxCell id="0XorIoKaiHv6GGdxO0SR-17" value="&lt;font style=&quot;font-size: 14px;&quot;&gt;+__init__(array)&lt;br&gt;+setup_ui(array)&lt;/font&gt;" style="text;strokeColor=none;fillColor=none;align=left;verticalAlign=top;spacingLeft=4;spacingRight=4;overflow=hidden;rotatable=0;points=[[0,0.5],[1,0.5]];portConstraint=eastwest;whiteSpace=wrap;html=1;" vertex="1" parent="0XorIoKaiHv6GGdxO0SR-14">
          <mxGeometry y="34" width="170" height="46" as="geometry" />
        </mxCell>
        <mxCell id="0XorIoKaiHv6GGdxO0SR-18" value="&lt;font style=&quot;font-size: 14px;&quot;&gt;QDialog&lt;/font&gt;" style="swimlane;fontStyle=0;childLayout=stackLayout;horizontal=1;startSize=26;fillColor=none;horizontalStack=0;resizeParent=1;resizeParentMax=0;resizeLast=0;collapsible=1;marginBottom=0;whiteSpace=wrap;html=1;" vertex="1" parent="WIyWlLk6GJQsqaUBKTNV-1">
          <mxGeometry x="-40" width="140" height="52" as="geometry" />
        </mxCell>
        <mxCell id="0XorIoKaiHv6GGdxO0SR-19" value="Extends" style="endArrow=block;endSize=16;endFill=0;html=1;rounded=0;exitX=0.5;exitY=0;exitDx=0;exitDy=0;entryX=0.5;entryY=1;entryDx=0;entryDy=0;" edge="1" parent="WIyWlLk6GJQsqaUBKTNV-1" source="0XorIoKaiHv6GGdxO0SR-14" target="0XorIoKaiHv6GGdxO0SR-18">
          <mxGeometry width="160" relative="1" as="geometry">
            <mxPoint x="-95" y="-40" as="sourcePoint" />
            <mxPoint x="65" y="-40" as="targetPoint" />
          </mxGeometry>
        </mxCell>
        <mxCell id="0XorIoKaiHv6GGdxO0SR-24" value="&lt;font style=&quot;font-size: 14px;&quot;&gt;Ui_MainWindow&lt;/font&gt;" style="swimlane;fontStyle=1;align=center;verticalAlign=top;childLayout=stackLayout;horizontal=1;startSize=26;horizontalStack=0;resizeParent=1;resizeParentMax=0;resizeLast=0;collapsible=1;marginBottom=0;whiteSpace=wrap;html=1;" vertex="1" parent="WIyWlLk6GJQsqaUBKTNV-1">
          <mxGeometry x="435" y="570" width="380" height="290" as="geometry" />
        </mxCell>
        <mxCell id="0XorIoKaiHv6GGdxO0SR-25" value="&lt;font style=&quot;font-size: 14px;&quot;&gt;+NumEdit: QWidget&lt;br&gt;+MinEdit: QTextEdit&lt;br&gt;+MaxEdit: QTextEdit&lt;br&gt;+MinLabel: QLabel&lt;br&gt;+MaxLabel: QLabel&lt;br&gt;+ComboSort: QComboBox&lt;br&gt;+Generate: QPushButton&lt;br&gt;+Sort: QPushButton&lt;br&gt;+Animation: QPushButton&lt;br&gt;+Graph: QPushButton&lt;br&gt;+Save: QPushButton&lt;br&gt;+Clear: QPushButton&lt;/font&gt;" style="text;strokeColor=none;fillColor=none;align=left;verticalAlign=top;spacingLeft=4;spacingRight=4;overflow=hidden;rotatable=0;points=[[0,0.5],[1,0.5]];portConstraint=eastwest;whiteSpace=wrap;html=1;" vertex="1" parent="0XorIoKaiHv6GGdxO0SR-24">
          <mxGeometry y="26" width="380" height="214" as="geometry" />
        </mxCell>
        <mxCell id="0XorIoKaiHv6GGdxO0SR-26" value="" style="line;strokeWidth=1;fillColor=none;align=left;verticalAlign=middle;spacingTop=-1;spacingLeft=3;spacingRight=3;rotatable=0;labelPosition=right;points=[];portConstraint=eastwest;strokeColor=inherit;" vertex="1" parent="0XorIoKaiHv6GGdxO0SR-24">
          <mxGeometry y="240" width="380" height="8" as="geometry" />
        </mxCell>
        <mxCell id="0XorIoKaiHv6GGdxO0SR-27" value="&lt;font style=&quot;font-size: 14px;&quot;&gt;+setup_ui(MainWindow)&lt;br&gt;+retranslateUi(MainWindow)&lt;br&gt;&lt;/font&gt;" style="text;strokeColor=none;fillColor=none;align=left;verticalAlign=top;spacingLeft=4;spacingRight=4;overflow=hidden;rotatable=0;points=[[0,0.5],[1,0.5]];portConstraint=eastwest;whiteSpace=wrap;html=1;" vertex="1" parent="0XorIoKaiHv6GGdxO0SR-24">
          <mxGeometry y="248" width="380" height="42" as="geometry" />
        </mxCell>
        <mxCell id="0XorIoKaiHv6GGdxO0SR-28" value="Use" style="endArrow=open;endSize=12;dashed=1;html=1;rounded=0;exitX=0.524;exitY=1;exitDx=0;exitDy=0;exitPerimeter=0;entryX=0.5;entryY=0;entryDx=0;entryDy=0;edgeStyle=orthogonalEdgeStyle;" edge="1" parent="WIyWlLk6GJQsqaUBKTNV-1" source="0XorIoKaiHv6GGdxO0SR-3" target="0XorIoKaiHv6GGdxO0SR-24">
          <mxGeometry width="160" relative="1" as="geometry">
            <mxPoint x="400" y="710" as="sourcePoint" />
            <mxPoint x="560" y="710" as="targetPoint" />
          </mxGeometry>
        </mxCell>
        <mxCell id="0XorIoKaiHv6GGdxO0SR-29" value="&lt;font style=&quot;font-size: 14px;&quot;&gt;RadixTime&lt;/font&gt;" style="swimlane;fontStyle=1;align=center;verticalAlign=top;childLayout=stackLayout;horizontal=1;startSize=26;horizontalStack=0;resizeParent=1;resizeParentMax=0;resizeLast=0;collapsible=1;marginBottom=0;whiteSpace=wrap;html=1;" vertex="1" parent="WIyWlLk6GJQsqaUBKTNV-1">
          <mxGeometry x="-180" y="330" width="380" height="110" as="geometry" />
        </mxCell>
        <mxCell id="0XorIoKaiHv6GGdxO0SR-31" value="" style="line;strokeWidth=1;fillColor=none;align=left;verticalAlign=middle;spacingTop=-1;spacingLeft=3;spacingRight=3;rotatable=0;labelPosition=right;points=[];portConstraint=eastwest;strokeColor=inherit;" vertex="1" parent="0XorIoKaiHv6GGdxO0SR-29">
          <mxGeometry y="26" width="380" height="8" as="geometry" />
        </mxCell>
        <mxCell id="0XorIoKaiHv6GGdxO0SR-32" value="&lt;font style=&quot;font-size: 14px;&quot;&gt;+countingSort(array, place)&lt;br&gt;+radix_sort(array)&lt;br&gt;+measure_time(array)&lt;br&gt;+plot_complexity(array)&lt;/font&gt;" style="text;strokeColor=none;fillColor=none;align=left;verticalAlign=top;spacingLeft=4;spacingRight=4;overflow=hidden;rotatable=0;points=[[0,0.5],[1,0.5]];portConstraint=eastwest;whiteSpace=wrap;html=1;" vertex="1" parent="0XorIoKaiHv6GGdxO0SR-29">
          <mxGeometry y="34" width="380" height="76" as="geometry" />
        </mxCell>
        <mxCell id="0XorIoKaiHv6GGdxO0SR-33" value="&lt;font style=&quot;font-size: 14px;&quot;&gt;CountingTime&lt;/font&gt;" style="swimlane;fontStyle=1;align=center;verticalAlign=top;childLayout=stackLayout;horizontal=1;startSize=26;horizontalStack=0;resizeParent=1;resizeParentMax=0;resizeLast=0;collapsible=1;marginBottom=0;whiteSpace=wrap;html=1;" vertex="1" parent="WIyWlLk6GJQsqaUBKTNV-1">
          <mxGeometry x="-180" y="450" width="380" height="110" as="geometry" />
        </mxCell>
        <mxCell id="0XorIoKaiHv6GGdxO0SR-34" value="" style="line;strokeWidth=1;fillColor=none;align=left;verticalAlign=middle;spacingTop=-1;spacingLeft=3;spacingRight=3;rotatable=0;labelPosition=right;points=[];portConstraint=eastwest;strokeColor=inherit;" vertex="1" parent="0XorIoKaiHv6GGdxO0SR-33">
          <mxGeometry y="26" width="380" height="8" as="geometry" />
        </mxCell>
        <mxCell id="0XorIoKaiHv6GGdxO0SR-35" value="&lt;font style=&quot;font-size: 14px;&quot;&gt;+counting_sort(array)&lt;br&gt;+radix_sort(array)&lt;br&gt;+measure_time(array)&lt;br&gt;+plot_complexity(array)&lt;/font&gt;" style="text;strokeColor=none;fillColor=none;align=left;verticalAlign=top;spacingLeft=4;spacingRight=4;overflow=hidden;rotatable=0;points=[[0,0.5],[1,0.5]];portConstraint=eastwest;whiteSpace=wrap;html=1;" vertex="1" parent="0XorIoKaiHv6GGdxO0SR-33">
          <mxGeometry y="34" width="380" height="76" as="geometry" />
        </mxCell>
        <mxCell id="0XorIoKaiHv6GGdxO0SR-36" value="&lt;font style=&quot;font-size: 14px;&quot;&gt;BucketTime&lt;/font&gt;" style="swimlane;fontStyle=1;align=center;verticalAlign=top;childLayout=stackLayout;horizontal=1;startSize=26;horizontalStack=0;resizeParent=1;resizeParentMax=0;resizeLast=0;collapsible=1;marginBottom=0;whiteSpace=wrap;html=1;" vertex="1" parent="WIyWlLk6GJQsqaUBKTNV-1">
          <mxGeometry x="-180" y="580" width="380" height="110" as="geometry" />
        </mxCell>
        <mxCell id="0XorIoKaiHv6GGdxO0SR-37" value="" style="line;strokeWidth=1;fillColor=none;align=left;verticalAlign=middle;spacingTop=-1;spacingLeft=3;spacingRight=3;rotatable=0;labelPosition=right;points=[];portConstraint=eastwest;strokeColor=inherit;" vertex="1" parent="0XorIoKaiHv6GGdxO0SR-36">
          <mxGeometry y="26" width="380" height="8" as="geometry" />
        </mxCell>
        <mxCell id="0XorIoKaiHv6GGdxO0SR-38" value="&lt;font style=&quot;font-size: 14px;&quot;&gt;+bucket_sort(array)&lt;br&gt;+radix_sort(array)&lt;br&gt;+measure_time(array)&lt;br&gt;+plot_complexity(array)&lt;/font&gt;" style="text;strokeColor=none;fillColor=none;align=left;verticalAlign=top;spacingLeft=4;spacingRight=4;overflow=hidden;rotatable=0;points=[[0,0.5],[1,0.5]];portConstraint=eastwest;whiteSpace=wrap;html=1;" vertex="1" parent="0XorIoKaiHv6GGdxO0SR-36">
          <mxGeometry y="34" width="380" height="76" as="geometry" />
        </mxCell>
        <mxCell id="0XorIoKaiHv6GGdxO0SR-39" value="Use" style="endArrow=open;endSize=12;dashed=1;html=1;rounded=0;exitX=-0.011;exitY=0.061;exitDx=0;exitDy=0;exitPerimeter=0;entryX=0.994;entryY=0.113;entryDx=0;entryDy=0;entryPerimeter=0;edgeStyle=orthogonalEdgeStyle;" edge="1" parent="WIyWlLk6GJQsqaUBKTNV-1" source="0XorIoKaiHv6GGdxO0SR-3" target="0XorIoKaiHv6GGdxO0SR-14">
          <mxGeometry width="160" relative="1" as="geometry">
            <mxPoint x="200" y="310" as="sourcePoint" />
            <mxPoint x="360" y="310" as="targetPoint" />
          </mxGeometry>
        </mxCell>
        <mxCell id="0XorIoKaiHv6GGdxO0SR-43" value="Use" style="endArrow=open;endSize=12;dashed=1;html=1;rounded=0;exitX=-0.003;exitY=0.552;exitDx=0;exitDy=0;exitPerimeter=0;entryX=1.008;entryY=0.164;entryDx=0;entryDy=0;entryPerimeter=0;edgeStyle=orthogonalEdgeStyle;" edge="1" parent="WIyWlLk6GJQsqaUBKTNV-1" source="0XorIoKaiHv6GGdxO0SR-3" target="0XorIoKaiHv6GGdxO0SR-29">
          <mxGeometry width="160" relative="1" as="geometry">
            <mxPoint x="200" y="310" as="sourcePoint" />
            <mxPoint x="360" y="310" as="targetPoint" />
          </mxGeometry>
        </mxCell>
        <mxCell id="0XorIoKaiHv6GGdxO0SR-44" value="Use" style="endArrow=open;endSize=12;dashed=1;html=1;rounded=0;exitX=-0.003;exitY=0.698;exitDx=0;exitDy=0;exitPerimeter=0;entryX=1.005;entryY=0.1;entryDx=0;entryDy=0;entryPerimeter=0;edgeStyle=orthogonalEdgeStyle;" edge="1" parent="WIyWlLk6GJQsqaUBKTNV-1" source="0XorIoKaiHv6GGdxO0SR-3" target="0XorIoKaiHv6GGdxO0SR-33">
          <mxGeometry x="-0.0056" width="160" relative="1" as="geometry">
            <mxPoint x="200" y="310" as="sourcePoint" />
            <mxPoint x="360" y="310" as="targetPoint" />
            <mxPoint as="offset" />
          </mxGeometry>
        </mxCell>
        <mxCell id="0XorIoKaiHv6GGdxO0SR-45" value="Use" style="endArrow=open;endSize=12;dashed=1;html=1;rounded=0;exitX=0.061;exitY=0.995;exitDx=0;exitDy=0;exitPerimeter=0;entryX=1.011;entryY=0.109;entryDx=0;entryDy=0;entryPerimeter=0;edgeStyle=orthogonalEdgeStyle;" edge="1" parent="WIyWlLk6GJQsqaUBKTNV-1" source="0XorIoKaiHv6GGdxO0SR-3" target="0XorIoKaiHv6GGdxO0SR-36">
          <mxGeometry width="160" relative="1" as="geometry">
            <mxPoint x="200" y="310" as="sourcePoint" />
            <mxPoint x="360" y="310" as="targetPoint" />
            <Array as="points">
              <mxPoint x="338" y="520" />
              <mxPoint x="270" y="520" />
              <mxPoint x="270" y="592" />
            </Array>
          </mxGeometry>
        </mxCell>
      </root>
    </mxGraphModel>
  </diagram>
</mxfile>
